<svg version="1.1"
  xmlns="http://www.w3.org/2000/svg" viewBox="0 0 111.5800248622894 114.63008816757292" width="100" height="100">
  <!-- svg-source:excalidraw -->
  <g stroke-linecap="round">
    <g transform="translate(11.26115545257926 87.42638464936107) rotate(0 44.52885697856544 -30.111340565574608)">
      <path d="M3.06 -3.32 C15.29 -11.26, 24.88 -23.8, 25.75 -31.99 M-1.26 -1.23 C5.9 -7.18, 10.76 -13.64, 29.64 -30.23 M31.12 -28.77 C14.73 -44.63, 5.84 -51.82, 1.72 -61.52 M30.09 -28.9 C22.73 -39.13, 12.01 -47.46, -0.31 -64.66 M0.86 -64.48 C7.15 -69.21, 7.12 -72.56, 11.89 -75.24 M-0.28 -63.1 C2.14 -65.55, 6.62 -70.16, 11.57 -74.79 M8.77 -75.81 C22.13 -68.87, 29.53 -57.77, 42.19 -40.39 M11.48 -76.34 C23.65 -63.45, 32.76 -53.72, 42.31 -43.1 M45.1 -45.88 C50.4 -54.43, 64.61 -64.3, 75.02 -73.59 M42.92 -42.86 C54.74 -56.5, 67.02 -64.8, 76.51 -74.51 M76.06 -77.43 C79.86 -71.41, 79.94 -68.34, 85.91 -61.89 M74.82 -73.74 C80.51 -70.66, 85.73 -67.93, 87.24 -63.35 M85.98 -62.51 C77.91 -51.03, 71.57 -42.66, 55.47 -27.87 M90.32 -64.28 C80.18 -52.27, 71.05 -43.8, 53.82 -30.66 M51.93 -29.55 C62.68 -22.32, 76.48 -12.48, 84.62 6.9 M55.73 -32.18 C65.67 -17.97, 78.51 -8.39, 88.39 3.39 M87.14 -0.16 C86.03 9.45, 74.4 9.32, 75.42 13.27 M87.33 2.97 C82.52 8.01, 78.97 8.63, 75.16 14.15 M77.21 17.2 C67.19 11.36, 55.6 -1.05, 39.86 -14.31 M73.27 14.19 C67.55 9.69, 60.77 1.05, 43.22 -17.93 M43.34 -18.12 C33.35 -4.49, 20.48 4.93, 10.31 13.79 M41.39 -19.18 C34.37 -8.18, 24.44 -1.08, 10.16 12.49 M6.35 9.37 C4.77 8.26, 5.04 2.73, 1.78 -1.25 M7.75 11.68 C7.07 8.13, 2.46 1.79, 1.29 1.03" stroke="#000000" stroke-width="1" fill="none"></path>
    </g>
  </g>
</svg>
