<svg version="1.1"
  xmlns="http://www.w3.org/2000/svg" viewBox="0 0 105 77" width="100" height="100">
  <!-- svg-source:excalidraw -->
  <g stroke-linecap="round" transform="translate(10 52.933934462361094) rotate(0 42.69740346910291 7.235040509259477)">
    <path d="M3.62 0 M3.62 0 C27.6 -0.3, 49.43 1.64, 81.78 0 M3.62 0 C27.53 1.08, 51.53 0.88, 81.78 0 M81.78 0 C85.46 1.16, 83.59 2.05, 85.39 3.62 M81.78 0 C84.91 1.55, 87.23 1.73, 85.39 3.62 M85.39 3.62 C84.87 6.55, 85.89 8.7, 85.39 10.85 M85.39 3.62 C85.28 5.09, 85.34 7.02, 85.39 10.85 M85.39 10.85 C83.92 14.13, 84.85 13.02, 81.78 14.47 M85.39 10.85 C87.31 15.04, 84.55 12.69, 81.78 14.47 M81.78 14.47 C66.03 13.21, 50.89 13.42, 3.62 14.47 M81.78 14.47 C58.79 14.82, 35.11 14.13, 3.62 14.47 M3.62 14.47 C1.21 13.05, -1.86 14.09, 0 10.85 M3.62 14.47 C2.26 15.23, -0.58 14.25, 0 10.85 M0 10.85 C-0.08 9.26, 0.51 6.54, 0 3.62 M0 10.85 C0.28 8.14, -0.16 5.02, 0 3.62 M0 3.62 C0.51 0.04, -0.39 -0.68, 3.62 0 M0 3.62 C0.03 -0.46, 0.65 1, 3.62 0" stroke="#000000" stroke-width="1" fill="none"></path>
  </g>
  <g stroke-linecap="round" transform="translate(15.36701938229561 33.285841424452656) rotate(180 37.33038408680733 6.325603412622229)">
    <path d="M3.16 0 M3.16 0 C19.02 -2.08, 32.29 -1.61, 71.5 0 M3.16 0 C18.92 0, 33.95 -0.08, 71.5 0 M71.5 0 C72.84 -0.18, 75.97 -0.71, 74.66 3.16 M71.5 0 C73.52 0, 73.02 -1.09, 74.66 3.16 M74.66 3.16 C74.53 5.59, 74.55 7.28, 74.66 9.49 M74.66 3.16 C74.87 5.23, 74.97 7.4, 74.66 9.49 M74.66 9.49 C74.69 12.96, 74.57 11.57, 71.5 12.65 M74.66 9.49 C74.28 12.18, 72.26 10.82, 71.5 12.65 M71.5 12.65 C52.84 13.03, 36.6 12.07, 3.16 12.65 M71.5 12.65 C49.44 12.49, 27.49 12.41, 3.16 12.65 M3.16 12.65 C-0.18 11.52, 1.88 13.06, 0 9.49 M3.16 12.65 C0.92 14.6, -2.25 13.58, 0 9.49 M0 9.49 C0.18 7.2, 0.35 4.98, 0 3.16 M0 9.49 C0.17 7.2, -0.04 5.29, 0 3.16 M0 3.16 C-0.93 1.92, 1.2 0.87, 3.16 0 M0 3.16 C-1.99 3.25, 1.78 -1.55, 3.16 0" stroke="#000000" stroke-width="1" fill="none"></path>
  </g>
  <g stroke-linecap="round" transform="translate(10 10) rotate(0 42.69740346910291 7.235040509259477)">
    <path d="M3.62 0 M3.62 0 C20.75 1.31, 40.7 1.43, 81.78 0 M3.62 0 C20.96 0.42, 38.78 -0.54, 81.78 0 M81.78 0 C83.59 0.55, 84.19 -0.76, 85.39 3.62 M81.78 0 C84.39 -0.78, 85.47 0.93, 85.39 3.62 M85.39 3.62 C85.09 5.15, 85.22 7.03, 85.39 10.85 M85.39 3.62 C85.59 6.07, 85.75 8.35, 85.39 10.85 M85.39 10.85 C85.3 12.97, 82.86 12.75, 81.78 14.47 M85.39 10.85 C83.86 13.79, 83.44 15.73, 81.78 14.47 M81.78 14.47 C52.33 13.6, 20.82 11.84, 3.62 14.47 M81.78 14.47 C50.24 14.83, 20.02 15.6, 3.62 14.47 M3.62 14.47 C2.41 15.44, -1.01 11.83, 0 10.85 M3.62 14.47 C-0.64 13.6, 1.38 13.25, 0 10.85 M0 10.85 C-0.02 8.13, -0.49 5.96, 0 3.62 M0 10.85 C-0.22 9, 0.08 6.66, 0 3.62 M0 3.62 C-0.65 1.74, -0.75 -0.18, 3.62 0 M0 3.62 C1.17 -0.86, 0.88 1.63, 3.62 0" stroke="#000000" stroke-width="1" fill="none"></path>
  </g>
</svg>
