<svg version="1.1"
  xmlns="http://www.w3.org/2000/svg" viewBox="0 0 82 102" width="100" height="100">
  <!-- svg-source:excalidraw -->
  <g stroke-linecap="round">
    <g transform="translate(34.715110643685534 11.105198602608084) rotate(330.9824502097761 -5.824177365942035 41.750935329532524)">
      <path d="M0.21 1.18 C-1.59 15.02, -9.28 69.46, -11.4 82.74 M-1.14 0.76 C-2.96 14.29, -9.81 67.61, -11.86 81.1" stroke="#000000" stroke-width="1" fill="none"></path>
    </g>
  </g>
  <g stroke-linecap="round">
    <g transform="translate(22.758492633978165 79.43830291873257) rotate(330.9824502097761 32.86715565325818 -25.17273314947647)">
      <path d="M0.97 0.35 C11.69 -7.92, 52.87 -42.19, 63.61 -50.7 M0.02 -0.51 C11.15 -8.56, 54.9 -41.42, 65.72 -49.65" stroke="#000000" stroke-width="1" fill="none"></path>
    </g>
  </g>
  <g stroke-linecap="round">
    <g transform="translate(19.40813397812792 9.689882328340673) rotate(330.9824502097761 21.60927169231823 13.013947319491933)">
      <path d="M-0.99 0.27 C2.97 1.92, 17.54 5.11, 24.68 9.28 C31.82 13.45, 38.65 22.53, 41.87 25.28 M0.7 -0.64 C4.42 0.76, 16.49 3.2, 23.74 7.75 C30.99 12.3, 41.31 24.02, 44.21 26.66" stroke="#c92a2a" stroke-width="1" fill="none"></path>
    </g>
  </g>
  <g stroke-linecap="round">
    <g transform="translate(15.139424543101029 1.479300247010542) rotate(330.9824502097761 26.026032340325173 15.728506828025559)">
      <path d="M-0.54 -0.62 C4.53 1.11, 22.73 5.12, 31.59 10.57 C40.44 16.02, 49.3 28.67, 52.6 32.08 M1.37 1.67 C6.15 3.55, 21.87 7.09, 30.36 11.87 C38.86 16.65, 48.81 26.97, 52.32 30.35" stroke="#c92a2a" stroke-width="1" fill="none"></path>
    </g>
  </g>
  <g stroke-linecap="round" transform="translate(26.861368815432115 24.51445250291613) rotate(330.9824502097761 5.937599481169457 5.937599481169457)">
    <path d="M2.84 -0.09 C4.22 -0.56, 7.38 -0.24, 8.69 0.11 C10 0.45, 10.08 0.86, 10.71 1.96 C11.35 3.05, 12.65 5.28, 12.5 6.69 C12.35 8.09, 10.91 9.39, 9.83 10.4 C8.76 11.4, 7.21 12.55, 6.05 12.73 C4.88 12.92, 3.74 12.49, 2.82 11.5 C1.91 10.52, 0.91 8.3, 0.55 6.82 C0.18 5.34, -0.18 3.86, 0.64 2.64 C1.46 1.41, 4.56 -0.24, 5.46 -0.52 C6.36 -0.81, 6.28 0.82, 6.06 0.92 M3.72 -0.27 C4.43 -0.25, 6.43 0.39, 7.68 1.15 C8.93 1.91, 10.76 3.12, 11.22 4.31 C11.68 5.5, 11.07 7.11, 10.41 8.28 C9.75 9.45, 8.43 10.94, 7.26 11.32 C6.08 11.69, 4.23 10.69, 3.36 10.52 C2.5 10.35, 2.42 11, 2.09 10.27 C1.75 9.54, 1.43 7.65, 1.35 6.13 C1.28 4.62, 0.96 2.05, 1.63 1.16 C2.29 0.28, 4.95 0.82, 5.36 0.83 C5.78 0.84, 4.27 1.41, 4.11 1.23" stroke="#c92a2a" stroke-width="1" fill="none"></path>
  </g>
  <g stroke-linecap="round" transform="translate(41.54644239471179 34.72354043754149) rotate(330.9824502097761 5.937599481169457 5.937599481169457)">
    <path d="M8.47 0.55 C9.84 0.93, 11.02 2.06, 11.63 3.01 C12.24 3.95, 12.32 5.07, 12.12 6.22 C11.91 7.37, 11.53 9.03, 10.4 9.92 C9.27 10.8, 6.57 11.38, 5.33 11.53 C4.08 11.69, 3.68 11.41, 2.9 10.84 C2.13 10.26, 1.15 9.29, 0.69 8.08 C0.22 6.87, -0.3 4.79, 0.12 3.57 C0.53 2.34, 1.78 1.1, 3.19 0.73 C4.61 0.36, 7.52 1.19, 8.61 1.35 C9.69 1.5, 9.83 1.62, 9.72 1.65 M3.18 0.77 C4.16 0.27, 4.44 0.28, 5.81 0.56 C7.18 0.85, 10.48 1.6, 11.4 2.48 C12.33 3.35, 11.3 4.78, 11.37 5.8 C11.43 6.82, 12.61 7.34, 11.81 8.59 C11 9.84, 7.93 12.84, 6.56 13.31 C5.18 13.78, 4.68 12.54, 3.54 11.42 C2.41 10.3, 0.16 7.78, -0.27 6.59 C-0.7 5.4, 0.39 5.24, 0.96 4.28 C1.52 3.31, 2.78 1.53, 3.11 0.81 C3.44 0.1, 2.62 -0.01, 2.93 -0.03" stroke="#c92a2a" stroke-width="1" fill="none"></path>
  </g>
  <g stroke-linecap="round" transform="translate(35.36444825013825 51.90888643787832) rotate(330.9824502097761 5.937599481169457 5.937599481169457)">
    <path d="M5.33 -0.13 C6.55 -0.48, 7.77 0.42, 8.83 1.01 C9.9 1.6, 11.35 2.09, 11.73 3.42 C12.1 4.74, 11.5 7.54, 11.08 8.97 C10.66 10.41, 10.15 11.62, 9.21 12.04 C8.27 12.46, 6.75 12.08, 5.44 11.52 C4.12 10.96, 2.29 9.53, 1.29 8.7 C0.29 7.87, -0.47 7.6, -0.57 6.53 C-0.66 5.47, -0.52 3.41, 0.73 2.33 C1.99 1.25, 5.82 0.42, 6.96 0.06 C8.1 -0.3, 7.57 0.2, 7.57 0.16 M3.87 1.45 C5.31 1.61, 9.44 1.57, 10.48 2.15 C11.52 2.72, 9.86 4.09, 10.11 4.9 C10.37 5.7, 12.19 6.07, 12.02 7 C11.84 7.92, 10.48 9.85, 9.06 10.42 C7.65 10.99, 4.67 10.35, 3.54 10.43 C2.41 10.52, 2.95 11.62, 2.31 10.94 C1.67 10.26, -0.34 7.87, -0.28 6.35 C-0.23 4.83, 1.76 2.86, 2.63 1.82 C3.5 0.79, 4.75 0.47, 4.93 0.14 C5.1 -0.19, 3.48 -0.26, 3.67 -0.16" stroke="#c92a2a" stroke-width="1" fill="none"></path>
  </g>
</svg>
