<!-- svg-source:excalidraw -->
<svg xmlns="http://www.w3.org/2000/svg" viewBox="0 0 105 77" width="40" height="40" stroke="#000" fill="none" stroke-linecap="round" xmlns:v="https://vecta.io/nano"><path d="M13.62 52.9339344624c23.98-.3 45.81 1.64 78.16 0m-78.16 0c23.91 1.08 47.91.88 78.16 0m0 0c3.68 1.16 1.81 2.05 3.61 3.62m-3.61-3.62c3.13 1.55 5.45 1.73 3.61 3.62m0 0c-.52 2.93.5 5.08 0 7.23m0-7.23c-.11 1.47-.05 3.4 0 7.23m0 0c-1.47 3.28-.54 2.17-3.61 3.62m3.61-3.62c1.92 4.19-.84 1.84-3.61 3.62m0 0c-15.75-1.26-30.89-1.05-78.16 0m78.16 0c-22.99.35-46.67-.34-78.16 0m0 0c-2.41-1.42-5.48-.38-3.62-3.62m3.62 3.62c-1.36.76-4.2-.22-3.62-3.62m0 0c-.08-1.59.51-4.31 0-7.23m0 7.23c.28-2.71-.16-5.83 0-7.23m0 0c.51-3.58-.39-4.3 3.62-3.62m-3.62 3.62c.03-4.08.65-2.62 3.62-3.62m73.2477875559-6.9968862127c-15.86 2.08-29.13 1.61-68.34 0m68.34 0h-68.34m0 0c-1.34.18-4.47.71-3.16-3.16m3.16 3.16c-2.02 0-1.52 1.09-3.16-3.16m0 0c.13-2.43.11-4.12 0-6.33m0 6.33c-.21-2.07-.31-4.24 0-6.33m0 0c-.03-3.47.09-2.08 3.16-3.16m-3.16 3.16c.38-2.69 2.4-1.33 3.16-3.16m0 0c18.66-.38 34.9.58 68.34 0m-68.34 0h68.34m0 0c3.34 1.13 1.28-.41 3.16 3.16m-3.16-3.16c2.24-1.95 5.41-.93 3.16 3.16m0 0c-.18 2.29-.35 4.51 0 6.33m0-6.33c-.17 2.29.04 4.2 0 6.33m0 0c.93 1.24-1.2 2.29-3.16 3.16m3.16-3.16c1.99-.09-1.78 4.71-3.16 3.16M13.62 10c17.13 1.31 37.08 1.43 78.16 0m-78.16 0c17.34.42 35.16-.54 78.16 0m0 0c1.81.55 2.41-.76 3.61 3.62M91.78 10c2.61-.78 3.69.93 3.61 3.62m0 0c-.3 1.53-.17 3.41 0 7.23m0-7.23c.2 2.45.36 4.73 0 7.23m0 0c-.09 2.12-2.53 1.9-3.61 3.62m3.61-3.62c-1.53 2.94-1.95 4.88-3.61 3.62m0 0c-29.45-.87-60.96-2.63-78.16 0m78.16 0c-31.54.36-61.76 1.13-78.16 0m0 0c-1.21.97-4.63-2.64-3.62-3.62m3.62 3.62c-4.26-.87-2.24-1.22-3.62-3.62m0 0c-.02-2.72-.49-4.89 0-7.23m0 7.23c-.22-1.85.08-4.19 0-7.23m0 0c-.65-1.88-.75-3.8 3.62-3.62M10 13.62c1.17-4.48.88-1.99 3.62-3.62"/></svg>
