<svg version="1.1"
  xmlns="http://www.w3.org/2000/svg" viewBox="0 0 240 150.46752929687497" width="480" height="300">
  <!-- svg-source:excalidraw -->

  <defs>
    <style>
      @font-face {
        font-family: "Virgil";
        src: url("https://excalidraw.com/Virgil.woff2");
      }
      @font-face {
        font-family: "Cascadia";
        src: url("https://excalidraw.com/Cascadia.woff2");
      }
    </style>
  </defs>
  <rect x="0" y="0" width="240" height="150.46752929687497" fill="#ffffff"></rect>
  <g stroke-linecap="round" transform="translate(10 10) rotate(0 110 65.23376464843749)">
    <path d="M-1.85 -0.4 C72.16 -2.9, 137.87 -6.24, 218.83 1.58 M0.84 -0.78 C57.54 -5.19, 115.82 -2.26, 220.33 -0.07 M221.79 -2.73 C221.72 34.9, 214.88 76.97, 220.6 129.06 M219.71 1.08 C217.57 39.68, 217.8 79.35, 218.5 132.19 M219.15 130.25 C137.21 129.64, 60.15 130.85, -0.94 133.1 M221.14 129.87 C176.32 127.16, 129.16 128.26, -0.35 131.79 M2.44 132.65 C-0.64 87.77, -1.4 39.38, -2.51 0.95 M1.25 131.86 C-3.1 85.8, -3.25 40.55, -0.47 -1.31" stroke="#000000" stroke-width="1" fill="none"></path>
  </g>
  <g transform="translate(23.719451904296818 18.919395164207117) rotate(0 40 11)">
    <text x="0" y="17" font-family="Cascadia, Segoe UI Emoji" font-size="16px" fill="#000000" text-anchor="start" style="white-space: pre;" direction="ltr">＼(^o^)／</text>
  </g>
  <g transform="translate(21.107510036892336 84.0275460702401) rotate(0 40 11)">
    <text x="0" y="17" font-family="Cascadia, Segoe UI Emoji" font-size="16px" fill="#000000" text-anchor="start" style="white-space: pre;" direction="ltr">＼(๏◡๏)／</text>
  </g>
  <g transform="translate(59.88934326171869 55.60997743959774) rotate(0 40 10.999999999999986)">
    <text x="0" y="17" font-family="Cascadia, Segoe UI Emoji" font-size="16px" fill="#000000" text-anchor="start" style="white-space: pre;" direction="ltr">＼(๏◡๏)／</text>
  </g>
  <g transform="translate(138.25133599175342 68.6610412597656) rotate(0 40 11)">
    <text x="0" y="17" font-family="Cascadia, Segoe UI Emoji" font-size="16px" fill="#000000" text-anchor="start" style="white-space: pre;" direction="ltr">＼(^o^)／</text>
  </g>
  <g transform="translate(118.05242919921864 26.092765525535242) rotate(0 40 11)">
    <text x="0" y="17" font-family="Cascadia, Segoe UI Emoji" font-size="16px" fill="#000000" text-anchor="start" style="white-space: pre;" direction="ltr">＼(^o^)／</text>
  </g>
  <g transform="translate(108.95421685112842 107.08041381835935) rotate(0 42.5 9.5)">
    <text x="0" y="15" font-family="Cascadia, Segoe UI Emoji" font-size="16px" fill="#000000" text-anchor="start" style="white-space: pre;" direction="ltr">=^._.^= ∫</text>
  </g>
</svg>
