<!-- svg-source:excalidraw -->
<svg xmlns="http://www.w3.org/2000/svg" viewBox="0 0 111.5800248623 114.6300881676" width="100" height="100" xmlns:v="https://vecta.io/nano"><path d="M14.3211554526 84.1063846494c12.23-7.94 21.82-20.48 22.69-28.67m-27.01 30.76c7.16-5.95 12.02-12.41 30.9-29m1.48 1.46c-16.39-15.86-25.28-23.05-29.4-32.75m28.37 32.62c-7.36-10.23-18.08-18.56-30.4-35.76m1.17.18c6.29-4.73 6.26-8.08 11.03-10.76m-12.17 12.14c2.42-2.45 6.9-7.06 11.85-11.69m-2.8-1.02c13.36 6.94 20.76 18.04 33.42 35.42m-30.71-35.95l30.83 33.24m2.79-2.78c5.3-8.55 19.51-18.42 29.92-27.71m-32.1 30.73c11.82-13.64 24.1-21.94 33.59-31.65m-.45-2.92c3.8 6.02 3.88 9.09 9.85 15.54m-11.09-11.85c5.69 3.08 10.91 5.81 12.42 10.39m-1.26.84c-8.07 11.48-14.41 19.85-30.51 34.64m34.85-36.41c-10.14 12.01-19.27 20.48-36.5 33.62m-1.89 1.11c10.75 7.23 24.55 17.07 32.69 36.45m-28.89-39.08c9.94 14.21 22.78 23.79 32.66 35.57m-1.25-3.55c-1.11 9.61-12.74 9.48-11.72 13.43m11.91-10.3c-4.81 5.04-8.36 5.66-12.17 11.18m2.05 3.05c-10.02-5.84-21.61-18.25-37.35-31.51m33.41 28.5c-5.72-4.5-12.5-13.14-30.05-32.12m.12-.19c-9.99 13.63-22.86 23.05-33.03 31.91m31.08-32.97c-7.02 11-16.95 18.1-31.23 31.67m-3.81-3.12c-1.58-1.11-1.31-6.64-4.57-10.62m5.97 12.93c-.68-3.55-5.29-9.89-6.46-10.65" stroke="#000" stroke-width="4px" fill="none" stroke-linecap="round"/></svg>
