<!-- svg-source:excalidraw -->
<svg xmlns="http://www.w3.org/2000/svg" viewBox="0 0 82 102" width="40" height="40" xmlns:v="https://vecta.io/nano"><g stroke="#000" stroke-width="2px" fill="none" stroke-linecap="round"><path d="M14.4875997309 14.4509770813L43.8979099557 91.404595271M13.103331106 14.7385538089l29.5967950206 75.455044394"/><path d="M40.1130087828 92.0570564004c5.3627400393-12.4319073062 24.7498569919-62.3755254798 30.0136678558-75.0270074163M38.8650945275 91.765834816c5.8279902672-12.4384054222 28.1464573897-62.3956684106 33.6160476457-74.8411046196"/></g><path d="M15.0731921132 22.5220132485c4.2632836925-.4780294525 18.5517258211-4.7560455273 26.8182231155-4.57295407s18.6436390268 4.8102103736 22.7933992993 5.6530565523m-48.575186661-2.6956522117c3.9321412384-.5802286458 15.6705973255-4.3014043594 24.2176158964-3.8393723826s23.2566692668 5.7048343196 27.073240241 6.6067134682m-57.3965491925-7.8757109749c5.2727528887-.9465077784 23.1332889035-6.268288802 33.5247758007-5.8002075408 10.3827421854.4729320362 24.2667870461 7.237205708 28.8066561587 8.6183966581m-59.5503645648-1.7421481576c5.0919178742-.6746646297 20.5557789694-5.2044549148 30.2987096127-5.1427906631 9.751675355.0568134768 23.4586632257 4.2548348574 28.1676189587 5.5079253985m-44.0849767748 9.4443964964c.9787837894-1.080408392 3.8973374791-2.3334225022 5.2126718326-2.6628091117 1.3104835785-.3381313212 1.5793230449-.0184043419 2.6638251253.6379151213 1.0883960171.6427239765 3.3069313494 1.9621939381 3.859719942 3.2679599094.5479378177 1.2970212596-.080699921 3.1323453709-.5352005127 4.5394449453-.450606655 1.3935040877-1.2481978464 3.1510160482-2.1752704524 3.8711107526-.9309665427.733690191-2.1364469972.9106559329-3.4211871919.4912007718-1.271144708-.4155612244-3.2224879149-1.8718097227-4.255212228-2.9913991534-1.0414690247-1.1147386557-2.0741933377-2.2343280864-1.9489215237-3.6989464574.1204210391-1.4733630827 2.0309037937-4.4199807444 2.6821061464-5.1014024169.6463515778-.6901663842 1.3670702011.7740278195 1.2231942936.9681919852m-2.6235047524.0944606481c.6305760793-.326915598 2.6899680123-.7374090403 4.1517158686-.6791578212s3.6489738629.2286695168 4.6284728192 1.0461545593 1.2270463106 2.521280895 1.2174360087 3.8645633084-.4411467764 3.2865467472-1.279948595 4.1863864602c-.8523973053.8959457762-2.9552464613.9188679737-3.7984995517 1.1922252957-.8345083787.2685065471-.5891657005.8757190059-1.2318477573.3974306265-.6514267685-.4734376045-1.8480540077-1.9709633139-2.6553294935-3.2613532898-.7936799991-1.2864960392-2.3201599349-3.378662143-2.1659832227-4.4819434042.1502827754-1.0896857746 2.7383179299-1.9077774804 3.1017018838-2.0979145416.3721286656-.1949878362-.6718286262 1.035927747-.8990579622.9561353359m18.1679151759 7.4995096623c1.3823549484-.3322571242 2.9623684961.0835038518 3.9566195289.6183541896.9894002578.5261056261 1.6026447456 1.4667071349 1.9855896311 2.5693644772.3742001739 1.1075081173.8471297716 2.7434597045.2906963221 4.0698766134-.5612842245 1.3176721972-2.6410114314 3.1345747111-3.6525940556 3.86724148-1.015476561.7462622556-1.5010867268.6954413265-2.4596684101.5753532067-.9546877465-.1336836064-2.2821946614-.5065446945-3.2713951676-1.3415191603-.9979452179-.8301236908-2.4616314148-2.3967834232-2.686148068-3.6673707962-.2381121398-1.2744813097.2534807266-2.9651724269 1.3070064006-3.972686027 1.0622703856-1.012364375 4.0095958057-1.6981288157 5.0403817782-2.0869478983 1.0171904858-.3927130193 1.1978257488-.3556873284 1.1161862451-.2760946689m-6.1459096352 2.4028721889c.6144429973-.9126115291.8641456993-1.039688516 2.1979928983-1.459392757 1.3386979739-.4109595293 4.5882609499-1.3558618865 5.8196426202-1.0325985539 1.235275607.309667846 1.0282311215 2.0597914362 1.5842231481 2.9177966031.5472473149.8628559418 1.8313635907.7451895052 1.7381335248 2.2263404613-.1019747775 1.4860017311-1.3313687789 5.5986031449-2.3014078566 6.674160762-.9787837894 1.080408392-2.0175154672.238602891-3.5576993932-.1878164731-1.5314392143-.431270139-4.7213946299-1.5435131191-5.6746594511-2.3755504864s-.0777036472-1.5006872236-.0449294765-2.6166737172l.1968941041-4.0773315676c-.0558295359-.7809501027-.8262544182-.4793783854-.564869906-.6472418321m-4.1317710906 15.9337128959c.8970777019-.8978594527 2.4005022725-.7026299452 3.6136374327-.7008741006 1.2218798719-.0030949304 2.7275510382-.2779664256 3.7050031504.7007507799.9638566255.9748232688 1.7973909105 3.7143890366 2.1237738376 5.1686153549.3312337021 1.46297103.4721971752 2.7684706659-.146073175 3.5917214017s-2.1317959738 1.2282694843-3.5489966013 1.3740171485c-1.4259453391.1505984392-3.7198883946-.2122035156-4.9969738835-.4529370902s-2.0726545004-.1081818939-2.6791345367-.9953582943c-.5928845498-.8832824637-1.4697182258-2.7526039193-.9005129601-4.3033796496.5779499773-1.5556265052 3.5245602305-4.1392843804 4.346829464-5.0070823451s.6013382619-.1734713084.5819351621-.2084501551m-2.6097933537 2.9228545382c1.3368508813-.5585962058 4.9290137059-2.5969451066 6.1198086679-2.5942324238 1.185944187-.0060320289.3988782159 1.9972221131 1.0104087789 2.5842743855.6154244997.5734567858 2.3864406988.0141700773 2.6889026705.9098914378.2888664851.8918274238.0357852616 3.2392621714-.929469625 4.42652078-.956510175 1.1824078337-3.8728838528 2.068277221-4.8222300732 2.6863724837-.9444954455.6268399744.0613042298 1.3268164121-.8282100144 1.0426256145s-3.806536505-1.3991711246-4.4913860272-2.7574719499c-.6935942339-1.3534500503.0910007257-4.0414624665.3473100472-5.3729299019.2611600965-1.3227227238 1.1990242583-2.2089003663 1.1963534952-2.5847898008-.0114154747-.3710386596-1.4620141918.3535739004-1.2473569203.3488562932" fill="none" stroke-width="2px" stroke-linecap="round" stroke="#c92a2a"/></svg>
