<svg xmlns="http://www.w3.org/2000/svg" viewBox="0 0 240 150" width="400" height="250"
  xmlns:v="https://vecta.io/nano">
  <style><![CDATA[.B{font-family:Virgil, Segoe UI Emoji}.C{font-size:20px}.D{fill:#000}.E{direction:ltr}]]></style>
  <defs>
    <style>@font-face{font-family:"Virgil";src:url("https://excalidraw.com/Virgil.woff2")}</style>
  </defs>
  <path fill="#fff" d="M0 0h240v150H0z"/>
  <g stroke="#000" fill="none" stroke-linecap="round">
    <path d="M12.01 10.72c44.7 1.98 85.39 2.51 217.35-3.99M10.44 8.85c83.73-1.03 167.49-3.18 219.74.83m-2.58-2.9c8.98 46.94 7.87 91.63 1.01 131.79m-.14-128.94c1.72 40.59 1.93 86.12.6 130.57m-.92-.13c-64.17 3.1-136.63-.23-219.32 1.97m222.01-2.35c-60.05 3.13-118.52 6.07-220.51.71m1.46-2.66c3.62-37.53-3.22-70.61-1.19-129.15m-.89 132.96c2.75-42.22 2.98-83.37-1.21-129.83m48.4189758301 2.9429943848v117.98m0-117.98v117.98m55.6184387207-117.98v117.98m0-117.98v117.98m57.7417297363-117.98v117.98m0-117.98v117.98"/>
    <path d="M13.9078369141 55.2668151855h210.8m-210.8 0h210.8M14.2564697266 100.4404907227h210.8m-210.8 0h210.8"/>
  </g>
  <text y="18" style="white-space:pre" transform="matrix(9.4941e-16 1 -1 9.4941e-16 96.77838134765628 71.82102966308592)" x="0" class="B C D E">:(</text>
  <text y="18" style="white-space:pre" transform="matrix(9.4941e-16 1 -1 9.4941e-16 152.3265075683594 27.311096191406236)" x="0" class="B C D E">:\</text>
  <text y="18" style="white-space:pre" transform="matrix(9.4941e-16 1 -1 9.4941e-16 213.1137390136719 111.01489257812499)" x="0" class="B C D E">:\</text>
  <text y="38.7733459473" style="white-space:pre" x="66.9186401367" class="B C D E">ô.O</text>
  <text y="18" style="white-space:pre" transform="matrix(-1.837e-16 -1 1 -1.837e-16 128.53625488281253 131.4951171875)" x="0" class="B C D E">$:</text>
  <text y="18" style="white-space:pre" transform="matrix(9.4941e-16 1 -1 9.4941e-16 153.37695312500003 70.44674682617186)" x="0" class="B C D E">:o</text>
  <text y="18" style="white-space:pre" transform="matrix(9.4941e-16 1 -1 9.4941e-16 47.43225097656249 24.95712280273436)" x="0" class="B C D E">:-|</text>
  <text y="18" style="white-space:pre" transform="matrix(9.4941e-16 1 -1 9.4941e-16 47.43225097656249 111.61810302734374)" x="0" class="B C D E">:-|</text>
  <text y="18" style="white-space:pre" transform="matrix(9.4941e-16 1 -1 9.4941e-16 208.32498168945318 70.82229614257811)" x="0" class="B C D E">:P</text>
  <text y="124.8802490234" style="white-space:pre" x="69.7039794922" class="B C D E">&gt;.&lt;</text>
  <text y="40.0898895264" style="white-space:pre" x="185.3011169434" class="B C D E">&gt;.&lt;</text>
  <text y="18" style="white-space:pre" transform="matrix(9.4941e-16 1 -1 9.4941e-16 48.490600585937486 70.44674682617186)" x="0" class="B C D E">:o</text>
</svg>
